<svg width="800" height="800" viewBox="0 0 800 800" fill="none" xmlns="http://www.w3.org/2000/svg">
<g clip-path="url(#clip0_2334_682)">
<path d="M644.449 0H155.547C135.729 0 119.637 16.0802 119.637 35.9131V764.087C119.637 783.92 135.731 800 155.547 800H514.064C605.912 800 680.364 725.544 680.364 633.712V35.9131C680.364 16.0802 664.269 0 644.449 0ZM187.339 111.979C187.339 95.692 200.545 82.502 216.821 82.502H583.175C599.45 82.502 612.654 95.692 612.654 111.979V319.144C612.654 335.432 599.45 348.62 583.175 348.62H216.822C200.547 348.62 187.34 335.432 187.34 319.144L187.339 111.979ZM366.718 596.641C366.718 603.099 361.482 608.336 355.026 608.336H311.716V651.643C311.716 658.103 306.482 663.339 300.022 663.339H243.412C236.953 663.339 231.717 658.105 231.717 651.643V608.336H188.415C181.955 608.336 176.718 603.099 176.718 596.641V540.028C176.718 533.57 181.955 528.333 188.415 528.333H231.72V485.024C231.72 478.565 236.956 473.33 243.415 473.33H300.029C306.487 473.33 311.721 478.563 311.721 485.024V528.333H355.031C361.487 528.333 366.724 533.567 366.724 540.028V596.639L366.718 596.641ZM490.596 680C466.664 680 447.265 660.601 447.265 636.667C447.265 612.735 466.664 593.333 490.596 593.333C514.53 593.333 533.929 612.732 533.929 636.667C533.931 660.601 514.53 680 490.596 680ZM570.596 546.668C546.662 546.668 527.266 527.271 527.266 503.335C527.266 479.402 546.662 460.001 570.596 460.001C594.531 460.001 613.93 479.399 613.93 503.335C613.93 527.269 594.531 546.668 570.596 546.668Z" fill="white"/>
</g>
<defs>
<clipPath id="clip0_2334_682">
<rect width="800" height="800" fill="white"/>
</clipPath>
</defs>
</svg>
