<svg width="64" height="64" viewBox="0 0 64 64" fill="none" xmlns="http://www.w3.org/2000/svg">
<path d="M57.6514 13.7012H6.3486C3.3994 13.7012 1 16.1006 1 19.0508V44.9512C1 47.9014 3.3994 50.3008 6.3486 50.3008H57.6513C60.6005 50.3008 62.9999 47.9014 62.9999 44.9512V19.0508C63 16.1006 60.6006 13.7012 57.6514 13.7012ZM61 44.9512C61 46.7979 59.498 48.3008 57.6514 48.3008H6.3486C4.502 48.3008 3 46.7979 3 44.9512V19.0508C3 17.2041 4.502 15.7012 6.3486 15.7012H57.6513C59.498 15.7012 60.9999 17.2041 60.9999 19.0508L61 44.9512Z" fill="white"/>
<path d="M47.1084 18.9043H16.9287C15.7724 18.9043 14.832 19.8447 14.832 21V43.002C14.832 44.1553 15.7724 45.0938 16.9287 45.0938H47.1084C48.2637 45.0938 49.2041 44.1553 49.2041 43.002V21C49.2041 19.8448 48.2637 18.9043 47.1084 18.9043ZM47.2041 43.002C47.2041 43.0499 47.1582 43.0938 47.1084 43.0938H16.9287C16.876 43.0938 16.832 43.0518 16.832 43.002V21C16.832 20.9492 16.8769 20.9043 16.9287 20.9043H47.1084C47.1572 20.9043 47.2041 20.9512 47.2041 21V43.002Z" fill="white"/>
<path d="M8.86618 29.9024C10.7978 29.9024 12.3691 28.337 12.3691 26.4131C12.3691 24.4912 10.7978 22.9277 8.86618 22.9277C6.93458 22.9277 5.36328 24.4912 5.36328 26.4131C5.36328 28.337 6.93458 29.9024 8.86618 29.9024ZM8.86618 24.9278C9.69528 24.9278 10.3691 25.5938 10.3691 26.4132C10.3691 27.2345 9.69528 27.9025 8.86618 27.9025C8.03708 27.9025 7.36328 27.2345 7.36328 26.4132C7.36328 25.5939 8.03708 24.9278 8.86618 24.9278Z" fill="white"/>
<path d="M55.1357 35.4531C53.2041 35.4531 51.6328 37.0176 51.6328 38.9414C51.6328 40.8643 53.2041 42.4277 55.1357 42.4277C57.0673 42.4277 58.6386 40.8642 58.6386 38.9414C58.6386 37.0176 57.0673 35.4531 55.1357 35.4531ZM55.1357 40.4277C54.3066 40.4277 53.6328 39.7607 53.6328 38.9414C53.6328 38.1211 54.3066 37.4531 55.1357 37.4531C55.9648 37.4531 56.6386 38.1211 56.6386 38.9414C56.6386 39.7607 55.9648 40.4277 55.1357 40.4277Z" fill="white"/>
<path d="M23.3956 23.2468C23.0714 22.8015 22.4454 22.7019 21.9991 23.028L19.0362 25.1891C18.5899 25.5143 18.4913 26.1403 18.8174 26.5856C19.0127 26.8542 19.3174 26.9967 19.626 26.9967C19.8301 26.9967 20.0362 26.9342 20.2139 26.8043L23.1768 24.6432C23.6231 24.3181 23.7217 23.6921 23.3956 23.2468Z" fill="white"/>
<path d="M29.42 22.9483L20.8917 29.168C20.4454 29.4932 20.3468 30.1182 20.6729 30.5645C20.8682 30.8331 21.1729 30.9756 21.4815 30.9756C21.6856 30.9756 21.8917 30.9131 22.0694 30.7832L30.5977 24.5635C31.044 24.2383 31.1426 23.6133 30.8165 23.167C30.4923 22.7207 29.8663 22.6221 29.42 22.9483Z" fill="white"/>
<path d="M11.3974 37.378H9.86614V35.8477C9.86614 35.295 9.41884 34.8477 8.86614 34.8477C8.31344 34.8477 7.86614 35.295 7.86614 35.8477V37.378H6.33594C5.78324 37.378 5.33594 37.8253 5.33594 38.378C5.33594 38.9307 5.78324 39.378 6.33594 39.378H7.86624V40.9122C7.86624 41.4649 8.31354 41.9122 8.86624 41.9122C9.41894 41.9122 9.86624 41.4649 9.86624 40.9122V39.378H11.3975C11.9502 39.378 12.3975 38.9307 12.3975 38.378C12.3975 37.8253 11.9501 37.378 11.3974 37.378Z" fill="white"/>
<path d="M57.6632 25.9747H56.1329V24.4434C56.1329 23.8907 55.6856 23.4434 55.1329 23.4434C54.5802 23.4434 54.1329 23.8907 54.1329 24.4434V25.9747H52.6016C52.0489 25.9747 51.6016 26.422 51.6016 26.9747C51.6016 27.5274 52.0489 27.9747 52.6016 27.9747H54.1329V29.5089C54.1329 30.0616 54.5802 30.5089 55.1329 30.5089C55.6856 30.5089 56.1329 30.0616 56.1329 29.5089V27.9747H57.6632C58.2159 27.9747 58.6632 27.5274 58.6632 26.9747C58.6632 26.422 58.216 25.9747 57.6632 25.9747Z" fill="white"/>
</svg>
