<svg width="32" height="32" viewBox="0 0 32 32" fill="none" xmlns="http://www.w3.org/2000/svg">
<path d="M31.3263 8.2703C30.9463 6.9213 29.8943 5.8633 28.5393 5.4893C26.0443 4.8223 16.0143 4.8223 16.0143 4.8223C16.0143 4.8223 6.00328 4.8063 3.48228 5.4893C2.13428 5.8643 1.07728 6.9213 0.701275 8.2703C0.228275 10.8273 -0.00672476 13.4153 0.00427524 16.0153C-0.000724758 18.5983 0.233275 21.1823 0.701275 23.7233C1.07728 25.0723 2.13428 26.1303 3.48228 26.5103C5.97728 27.1773 16.0143 27.1773 16.0143 27.1773C16.0143 27.1773 26.0193 27.1773 28.5393 26.5103C29.8943 26.1303 30.9463 25.0733 31.3263 23.7233C31.7853 21.1823 32.0093 18.5983 31.9933 16.0153C32.0093 13.4153 31.7903 10.8273 31.3263 8.2703ZM12.8103 20.8023V11.2073L21.1593 16.0153L12.8103 20.8023Z" fill="white"/>
</svg>
